<svg width="1093" height="421" viewBox="0 0 1093 421" fill="none" xmlns="http://www.w3.org/2000/svg">
<path d="M636.72 217.749C636.72 222.041 636.452 226.511 635.916 231.161H532.11C532.825 240.459 535.776 247.612 540.962 252.619C546.326 257.448 552.853 259.862 560.543 259.862C571.987 259.862 579.945 255.033 584.415 245.377H633.233C630.73 255.212 626.17 264.064 619.554 271.932C613.116 279.8 604.98 285.97 595.145 290.44C585.309 294.911 574.312 297.146 562.152 297.146C547.489 297.146 534.435 294.016 522.99 287.758C511.545 281.499 502.604 272.558 496.167 260.935C489.729 249.311 486.51 235.721 486.51 220.163C486.51 204.606 489.64 191.015 495.899 179.392C502.336 167.769 511.277 158.828 522.722 152.569C534.166 146.31 547.31 143.181 562.152 143.181C576.636 143.181 589.512 146.221 600.777 152.301C612.043 158.38 620.805 167.053 627.064 178.319C633.502 189.585 636.72 202.728 636.72 217.749ZM589.78 205.679C589.78 197.811 587.098 191.552 581.733 186.902C576.368 182.253 569.662 179.928 561.615 179.928C553.926 179.928 547.399 182.164 542.035 186.634C536.849 191.105 533.63 197.453 532.378 205.679H589.78ZM697.398 129.769C689.351 129.769 682.734 127.444 677.548 122.795C672.541 117.967 670.038 112.066 670.038 105.092C670.038 97.9388 672.541 92.0377 677.548 87.3884C682.734 82.5602 689.351 80.1461 697.398 80.1461C705.266 80.1461 711.703 82.5602 716.71 87.3884C721.896 92.0377 724.489 97.9388 724.489 105.092C724.489 112.066 721.896 117.967 716.71 122.795C711.703 127.444 705.266 129.769 697.398 129.769ZM720.197 145.326V295H674.33V145.326H720.197ZM855.365 295L826.664 253.424L802.524 295H752.901L802.255 218.554L751.559 145.326H803.06L831.761 186.634L855.902 145.326H905.525L855.365 220.7L906.866 295H855.365ZM1006.08 297.146C991.419 297.146 978.186 294.016 966.384 287.758C954.761 281.499 945.551 272.558 938.756 260.935C932.14 249.311 928.832 235.721 928.832 220.163C928.832 204.785 932.229 191.284 939.024 179.66C945.82 167.858 955.118 158.828 966.92 152.569C978.723 146.31 991.955 143.181 1006.62 143.181C1021.28 143.181 1034.51 146.31 1046.32 152.569C1058.12 158.828 1067.42 167.858 1074.21 179.66C1081.01 191.284 1084.41 204.785 1084.41 220.163C1084.41 235.542 1080.92 249.132 1073.95 260.935C1067.15 272.558 1057.76 281.499 1045.78 287.758C1033.98 294.016 1020.75 297.146 1006.08 297.146ZM1006.08 257.448C1014.84 257.448 1022.27 254.229 1028.35 247.791C1034.6 241.354 1037.73 232.144 1037.73 220.163C1037.73 208.182 1034.69 198.973 1028.61 192.535C1022.71 186.098 1015.38 182.879 1006.62 182.879C997.678 182.879 990.257 186.098 984.356 192.535C978.454 198.794 975.504 208.003 975.504 220.163C975.504 232.144 978.365 241.354 984.087 247.791C989.988 254.229 997.32 257.448 1006.08 257.448Z" fill="#6BCFFF"/>
<path d="M265.007 266.97C239.232 292.744 197.443 292.744 171.669 266.97V266.97C145.894 241.195 145.894 199.406 171.669 173.632L319.454 25.8462C322.578 22.722 327.644 22.722 330.768 25.8462L412.792 107.871C415.916 110.995 415.916 116.06 412.792 119.184L265.007 266.97Z" fill="#FFDA64"/>
<path d="M170.983 266.78C196.758 292.555 238.547 292.555 264.321 266.78V266.78C290.096 241.006 290.096 199.217 264.321 173.442L116.536 25.6568C113.412 22.5326 108.347 22.5326 105.222 25.6568L23.1979 107.681C20.0738 110.805 20.0738 115.871 23.1979 118.995L170.983 266.78Z" fill="#AA82FF"/>
<path d="M170.856 173.699C196.631 147.924 238.42 147.924 264.194 173.699V173.699C289.969 199.474 289.969 241.262 264.194 267.037L116.409 414.822C113.285 417.947 108.22 417.947 105.095 414.822L23.071 332.798C19.9468 329.674 19.9468 324.608 23.071 321.484L170.856 173.699Z" fill="#27E372"/>
<path d="M217 154.402C253.451 154.402 283 183.952 283 220.402V220.402C283 256.853 253.451 286.402 217 286.402L8 286.402C3.58172 286.402 -5.61334e-06 282.821 -5.42021e-06 278.402L-3.49691e-07 162.402C-1.56562e-07 157.984 3.58172 154.402 8 154.402L217 154.402Z" fill="#FF7A95"/>
<path d="M265.007 173.699C239.232 147.924 197.443 147.924 171.669 173.699V173.699C145.894 199.474 145.894 241.262 171.669 267.037L319.454 414.822C322.578 417.947 327.644 417.947 330.768 414.822L412.792 332.798C415.916 329.674 415.916 324.608 412.792 321.484L265.007 173.699Z" fill="#FF97FF"/>
<path d="M252.788 285.789C260.788 275.389 276.788 264.122 283.788 259.789L363.788 259.789L363.788 285.789C350.288 287.289 316.888 294.189 291.288 309.789C265.688 325.389 252.288 316.289 248.788 309.789C246.788 306.122 244.788 296.189 252.788 285.789Z" fill="#6BCFFF"/>
<path d="M212 286.402C178.863 286.402 152 259.539 152 226.402L152 214.402C152 181.265 178.863 154.402 212 154.402L427 154.402C431.418 154.402 435 157.984 435 162.402L435 278.402C435 282.821 431.418 286.402 427 286.402L212 286.402Z" fill="#6BCFFF"/>
</svg>
