<svg width="435" height="401" viewBox="0 0 435 401" fill="none" xmlns="http://www.w3.org/2000/svg">
<path d="M265.007 246.97C239.232 272.744 197.443 272.744 171.669 246.97V246.97C145.894 221.195 145.894 179.406 171.669 153.632L319.454 5.84624C322.578 2.72205 327.644 2.72204 330.768 5.84624L412.792 87.8706C415.916 90.9948 415.916 96.0601 412.792 99.1843L265.007 246.97Z" fill="#FFDA64"/>
<path d="M170.983 246.78C196.758 272.555 238.547 272.555 264.321 246.78V246.78C290.096 221.006 290.096 179.217 264.321 153.442L116.536 5.65679C113.412 2.53259 108.347 2.53259 105.222 5.65678L23.1979 87.6812C20.0738 90.8054 20.0738 95.8707 23.1979 98.9949L170.983 246.78Z" fill="#AA82FF"/>
<path d="M170.856 153.699C196.631 127.924 238.42 127.924 264.194 153.699V153.699C289.969 179.474 289.969 221.262 264.194 247.037L116.409 394.822C113.285 397.947 108.22 397.947 105.095 394.822L23.071 312.798C19.9468 309.674 19.9468 304.608 23.071 301.484L170.856 153.699Z" fill="#27E372"/>
<path d="M217 134.402C253.451 134.402 283 163.952 283 200.402V200.402C283 236.853 253.451 266.402 217 266.402L8 266.402C3.58172 266.402 -5.61334e-06 262.821 -5.42021e-06 258.402L-3.49691e-07 142.402C-1.56562e-07 137.984 3.58172 134.402 8 134.402L217 134.402Z" fill="#FF7A95"/>
<path d="M265.007 153.699C239.232 127.924 197.443 127.924 171.669 153.699V153.699C145.894 179.474 145.894 221.262 171.669 247.037L319.454 394.822C322.578 397.947 327.644 397.947 330.768 394.822L412.792 312.798C415.916 309.674 415.916 304.608 412.792 301.484L265.007 153.699Z" fill="#FF97FF"/>
<path d="M252.788 265.789C260.788 255.389 276.788 244.122 283.788 239.789L363.788 239.789L363.788 265.789C350.288 267.289 316.888 274.189 291.288 289.789C265.688 305.389 252.288 296.289 248.788 289.789C246.788 286.122 244.788 276.189 252.788 265.789Z" fill="#6BCFFF"/>
<path d="M212 266.402C178.863 266.402 152 239.539 152 206.402L152 194.402C152 161.265 178.863 134.402 212 134.402L427 134.402C431.418 134.402 435 137.984 435 142.402L435 258.402C435 262.821 431.418 266.402 427 266.402L212 266.402Z" fill="#6BCFFF"/>
</svg>
