<svg width="1435" height="1377" viewBox="0 0 1435 1377" fill="none" xmlns="http://www.w3.org/2000/svg">
<path d="M1238.59 534.499C1250 520.315 1260.07 490.571 1209 485.071L1208.59 485.024C1197.37 483.742 1171.04 480.735 1155.56 485.207C1153.11 485.915 1150.49 487.161 1152.37 481.229C1154.72 473.814 1176.93 403.7 1134.27 362.74C1129.09 360.358 1117.58 359.233 1112.97 373.792C1107.2 391.992 1097.78 447.449 1081.36 458.349C1058.45 473.559 1018.71 495.306 1007.04 497.17C976.749 498.706 931.339 501.938 885.973 514.493C838.209 527.711 779.323 554.286 739.756 611.333L738.824 612.686C726.385 630.913 720.865 650.114 718.026 663.248C714.95 677.476 713.509 691.992 712.853 705.282C708.53 792.837 734.71 875.643 743.891 961.825C753.781 1010.21 728.169 1017.3 704.94 1019.21C670.499 1019.05 660.741 1013.2 638.543 952.713C599.083 844.141 583.033 723.635 568.36 609.514C560.852 554.162 540.481 498.371 508.009 452.779C468.655 397.524 398.808 345.598 299.915 363.573C229.796 376.318 192.911 429.305 175.846 475.264C159.311 519.795 155.191 571.306 155.6 617.702C156.432 712.117 176.713 817.95 194.589 886.407L368.749 840.931C352.946 780.407 336.247 690.308 335.593 616.116C335.408 595.161 330.29 534.819 361.394 557.201C381.853 573.409 386.564 610.234 389.938 633.3C406.369 760.635 425.48 893.656 469.564 1014.73C480.265 1043.89 491.178 1072.56 503.991 1096.66C535.72 1156.35 588.501 1191.62 655.498 1199.55C769.582 1213.04 897.346 1186.13 924.083 1055C946.797 943.606 865.203 855.993 886.709 746.35C892.736 715.623 932.059 689.008 953.08 683.191C979.202 675.962 991.507 677.395 1017.94 676.343C1018.02 676.374 1018.11 676.407 1018.19 676.437C1108.67 670.616 1192.76 703.712 1261.44 702.33C1347.29 700.603 1325.02 662.023 1274.17 656.296C1233.49 651.715 1230.47 649.865 1234.04 649.514C1252.07 643.729 1278.13 625.062 1238.17 596.675C1261.19 585.672 1293.5 557.833 1238.59 534.499Z" fill="#45E586"/>
<path d="M1239.9 505.321C1242.16 510.456 1242.86 518.507 1237.48 525.931C1232.05 533.42 1219.91 541.025 1194.83 543.858C1182.21 545.283 1173.22 545.187 1166.98 544.127C1160.68 543.059 1157.7 541.103 1156.36 539.293C1155.1 537.592 1154.78 535.317 1155.6 532.222C1156.43 529.089 1158.33 525.565 1160.82 522.027L1161.1 521.639C1162.63 519.601 1165.96 516.104 1170.26 512.371C1174.81 508.424 1180.16 504.454 1185.15 501.865C1186.87 500.975 1187.53 498.862 1186.64 497.146C1185.75 495.431 1183.64 494.761 1181.93 495.651C1176.26 498.588 1170.45 502.94 1165.67 507.087C1161.23 510.941 1157.45 514.832 1155.46 517.491L1155.09 518.005C1152.39 521.849 1149.97 526.153 1148.84 530.428C1147.69 534.741 1147.76 539.456 1150.73 543.46C1153.62 547.356 1158.7 549.823 1165.8 551.029C1172.1 552.099 1180.4 552.25 1191.12 551.273C1186.31 556.641 1181.35 563.141 1177.82 569.481C1175.43 573.773 1173.55 578.227 1172.94 582.345C1172.32 586.494 1172.94 590.853 1176.29 594.024C1179.13 596.712 1183.55 598.621 1188.45 599.923C1189.32 600.152 1190.21 600.363 1191.12 600.561C1184.8 603.753 1179.67 607.541 1175.7 611.212C1172.59 614.092 1170.17 616.925 1168.46 619.38C1166.85 621.682 1165.61 624.017 1165.27 625.887L1165.27 625.887C1165.27 625.891 1165.27 625.895 1165.27 625.899C1165.27 625.908 1165.26 625.918 1165.26 625.927L1165.26 625.928C1164.19 631.806 1166.85 638.524 1174.24 643.703C1181.55 648.827 1193.59 652.596 1212.1 653.322C1230.96 654.062 1244.4 648.768 1252.4 641.247C1260.26 633.848 1263.08 623.855 1259.13 616.234L1251.34 618.587C1253.37 622.506 1254.04 630.086 1247.6 636.149C1241.29 642.088 1229.84 647.013 1212.37 646.327C1194.53 645.627 1184.02 642.008 1178.26 637.97C1172.59 634 1171.66 629.802 1172.15 627.169L1172.15 627.148L1172.16 627.129C1172.16 627.125 1172.16 627.098 1172.18 627.045C1172.2 626.985 1172.22 626.903 1172.26 626.796C1172.34 626.581 1172.46 626.3 1172.64 625.956C1172.98 625.265 1173.5 624.395 1174.2 623.387C1175.61 621.372 1177.69 618.915 1180.46 616.349C1185.82 611.384 1193.68 606.102 1204.07 602.829L1205.08 602.519L1205.25 602.463C1205.41 602.408 1205.56 602.343 1205.7 602.269C1217.77 602.672 1231.52 600.887 1242.63 595.991L1243.7 595.507C1252.93 591.208 1260.21 583.941 1264.61 576.524C1266.81 572.809 1268.35 568.951 1268.99 565.293C1269.64 561.667 1269.45 557.959 1267.83 554.829L1261.61 558.053C1262.3 559.367 1262.58 561.374 1262.1 564.07C1261.63 566.733 1260.45 569.803 1258.59 572.957C1254.84 579.277 1248.57 585.513 1240.74 589.162L1239.8 589.59C1229.91 593.94 1217.28 595.656 1205.9 595.272C1200.05 595.074 1194.65 594.325 1190.25 593.158C1185.75 591.963 1182.68 590.432 1181.1 588.938C1180.03 587.925 1179.43 586.264 1179.86 583.376C1180.3 580.456 1181.73 576.853 1183.93 572.889C1188.33 564.999 1195.29 556.605 1201.07 550.992C1201.38 550.693 1201.62 550.352 1201.79 549.987C1223.94 546.537 1236.65 539 1243.15 530.038C1250.27 520.209 1249.36 509.432 1246.3 502.496L1239.9 505.321Z" fill="#149B4A"/>
</svg>
