<svg width="1435" height="1377" viewBox="0 0 1435 1377" fill="none" xmlns="http://www.w3.org/2000/svg">
<path d="M195.644 534.499C184.226 520.315 174.159 490.571 225.229 485.07L225.642 485.024C236.864 483.742 263.187 480.735 278.67 485.207C281.119 485.914 283.74 487.161 281.86 481.229C279.51 473.813 257.304 403.699 299.957 362.74C305.137 360.358 316.648 359.233 321.261 373.792C327.028 391.992 336.455 447.449 352.874 458.349C375.786 473.56 415.518 495.307 427.196 497.171C457.483 498.706 502.892 501.938 548.257 514.493C596.021 527.711 654.907 554.286 694.474 611.333L695.406 612.686C707.845 630.913 713.366 650.113 716.205 663.248C719.28 677.476 720.722 691.992 721.378 705.282C725.7 792.837 699.521 875.643 690.34 961.825C680.449 1010.21 706.061 1017.3 729.29 1019.21C763.732 1019.05 773.489 1013.2 795.688 952.713C835.147 844.141 851.197 723.635 865.871 609.513C873.379 554.162 893.75 498.371 926.221 452.779C965.575 397.524 1035.42 345.598 1134.32 363.573C1204.43 376.317 1241.32 429.305 1258.38 475.264C1274.92 519.795 1279.04 571.306 1278.63 617.702C1277.8 712.117 1257.52 817.95 1239.64 886.407L1065.48 840.931C1081.28 780.407 1097.98 690.308 1098.64 616.116C1098.82 595.161 1103.94 534.819 1072.84 557.201C1052.38 573.409 1047.67 610.234 1044.29 633.3C1027.86 760.635 1008.75 893.656 964.666 1014.73C953.965 1043.89 943.052 1072.56 930.24 1096.66C898.51 1156.35 845.729 1191.62 778.732 1199.55C664.649 1213.04 536.885 1186.13 510.148 1055C487.433 943.606 569.028 855.993 547.521 746.35C541.494 715.623 502.171 689.008 481.15 683.191C455.028 675.962 442.724 677.396 416.29 676.344C416.207 676.375 416.124 676.407 416.04 676.437C325.556 670.615 241.469 703.712 172.79 702.33C86.9412 700.603 109.209 662.023 160.059 656.296C200.737 651.714 203.763 649.865 200.19 649.514C182.162 643.729 156.097 625.062 196.058 596.675C173.039 585.672 140.73 557.832 195.644 534.499Z" fill="#9766FF"/>
<path d="M182.895 618.586C180.862 622.505 180.187 630.086 186.63 636.148C192.941 642.087 204.389 647.012 221.86 646.327C239.697 645.627 250.21 642.008 255.972 637.97C261.638 634 262.57 629.802 262.08 627.168L262.076 627.148L262.072 627.128C262.072 627.125 262.067 627.098 262.052 627.045C262.035 626.985 262.008 626.902 261.968 626.796C261.889 626.58 261.767 626.3 261.595 625.955C261.249 625.264 260.734 624.395 260.03 623.386C258.623 621.371 256.543 618.914 253.773 616.349C248.408 611.383 240.551 606.102 230.162 602.828L229.149 602.518L228.977 602.463C227.232 601.845 226.259 599.96 226.793 598.165C227.327 596.37 229.173 595.324 230.972 595.762L231.146 595.81L232.266 596.153C243.752 599.772 252.495 605.627 258.528 611.212C261.639 614.092 264.056 616.924 265.77 619.379C267.377 621.681 268.622 624.017 268.96 625.887L268.961 625.886C268.962 625.89 268.962 625.894 268.962 625.898C268.964 625.908 268.967 625.917 268.969 625.927L268.967 625.927C270.044 631.806 267.381 638.523 259.99 643.703C252.678 648.826 240.636 652.595 222.135 653.321C203.268 654.061 189.827 648.768 181.833 641.246C173.97 633.848 171.149 623.855 175.103 616.234L182.895 618.586Z" fill="#5E39AC"/>
<path d="M172.616 558.053C171.935 559.367 171.649 561.374 172.127 564.07C172.6 566.733 173.776 569.802 175.645 572.957C179.389 579.277 185.657 585.513 193.487 589.161L194.434 589.59C204.317 593.939 216.949 595.656 228.333 595.271C234.181 595.073 239.579 594.325 243.98 593.157C248.482 591.963 251.554 590.431 253.134 588.937C254.205 587.924 254.799 586.264 254.369 583.375C253.934 580.455 252.505 576.852 250.296 572.888C245.899 564.998 238.937 556.605 233.16 550.991C231.774 549.644 231.742 547.428 233.09 546.041C234.437 544.655 236.653 544.624 238.039 545.971C244.175 551.934 251.605 560.857 256.411 569.48C258.803 573.773 260.679 578.227 261.292 582.344C261.91 586.494 261.295 590.853 257.943 594.023C255.1 596.712 250.684 598.621 245.776 599.923C240.767 601.251 234.833 602.056 228.569 602.268C216.487 602.676 202.727 600.892 191.599 595.99L190.53 595.506C181.303 591.207 174.017 583.941 169.623 576.523C167.423 572.809 165.884 568.951 165.236 565.292C164.593 561.667 164.779 557.959 166.403 554.829L172.616 558.053Z" fill="#5E39AC"/>
<path d="M194.332 505.321C192.067 510.456 191.373 518.507 196.752 525.931C202.178 533.42 214.324 541.025 239.403 543.858C252.017 545.283 261.013 545.187 267.254 544.127C273.547 543.059 276.533 541.103 277.873 539.294C279.134 537.592 279.448 535.317 278.627 532.222C277.796 529.089 275.896 525.565 273.412 522.027L273.131 521.639C271.598 519.601 268.268 516.104 263.97 512.371C259.425 508.424 254.071 504.454 249.081 501.865C247.365 500.975 246.696 498.862 247.586 497.146C248.476 495.431 250.588 494.761 252.304 495.651C257.965 498.588 263.785 502.94 268.56 507.087C272.999 510.942 276.778 514.832 278.768 517.491L279.143 518.005C281.841 521.849 284.26 526.153 285.394 530.428C286.538 534.741 286.465 539.456 283.499 543.46C280.612 547.357 275.53 549.823 268.426 551.029C261.271 552.244 251.543 552.274 238.617 550.814C212.615 547.876 198.159 539.803 191.084 530.038C183.962 520.21 184.868 509.432 187.927 502.496L194.332 505.321Z" fill="#5E39AC"/>
</svg>
